REM DIRINDEX 1\2,1\3,1\4,1\5,1\6
REM DIRNAME cjc030,folder01,folder02,folder03,folder04,folder05
TITLE ""
FILE "Disc2Track37.mp3" MP3
  TRACK 01 AUDIO
    TITLE "3:cjc030_03189"
    INDEX 01 00:00:00
  TRACK 02 AUDIO
    TITLE "0:"
    INDEX 01 00:01:11
  TRACK 03 AUDIO
    TITLE "4:cjc030_03190"
    INDEX 01 00:01:19
  TRACK 04 AUDIO
    TITLE "0:"
    INDEX 01 00:04:25
  TRACK 05 AUDIO
    TITLE "5:cjc030_03191"
    INDEX 01 00:04:31
  TRACK 06 AUDIO
    TITLE "0:"
    INDEX 01 00:05:48
  TRACK 07 AUDIO
    TITLE "6:cjc030_03192"
    INDEX 01 00:05:61
  TRACK 08 AUDIO
    TITLE "0:"
    INDEX 01 00:07:45
  TRACK 09 AUDIO
    TITLE "3:cjc030_03193"
    INDEX 01 00:08:19
  TRACK 10 AUDIO
    TITLE "0:"
    INDEX 01 00:09:36
  TRACK 11 AUDIO
    TITLE "4:cjc030_03194"
    INDEX 01 00:09:45
  TRACK 12 AUDIO
    TITLE "0:"
    INDEX 01 00:11:56
  TRACK 13 AUDIO
    TITLE "5:cjc030_03195"
    INDEX 01 00:11:64
  TRACK 14 AUDIO
    TITLE "0:"
    INDEX 01 00:13:06
  TRACK 15 AUDIO
    TITLE "3:cjc030_03196"
    INDEX 01 00:13:61
  TRACK 16 AUDIO
    TITLE "0:"
    INDEX 01 00:14:74
  TRACK 17 AUDIO
    TITLE "4:cjc030_03197"
    INDEX 01 00:15:07
  TRACK 18 AUDIO
    TITLE "0:"
    INDEX 01 00:16:20
  TRACK 19 AUDIO
    TITLE "5:cjc030_03198"
    INDEX 01 00:16:26
  TRACK 20 AUDIO
    TITLE "0:"
    INDEX 01 00:17:41
  TRACK 21 AUDIO
    TITLE "6:cjc030_03199"
    INDEX 01 00:17:55
  TRACK 22 AUDIO
    TITLE "0:"
    INDEX 01 00:19:34
  TRACK 23 AUDIO
    TITLE "3:cjc030_03200"
    INDEX 01 00:20:06
  TRACK 24 AUDIO
    TITLE "0:"
    INDEX 01 00:21:15
  TRACK 25 AUDIO
    TITLE "4:cjc030_03201"
    INDEX 01 00:21:25
  TRACK 26 AUDIO
    TITLE "0:"
    INDEX 01 00:23:65
  TRACK 27 AUDIO
    TITLE "5:cjc030_03202"
    INDEX 01 00:24:00
  TRACK 28 AUDIO
    TITLE "0:"
    INDEX 01 00:25:09
  TRACK 29 AUDIO
    TITLE "6:cjc030_03203"
    INDEX 01 00:25:19
  TRACK 30 AUDIO
    TITLE "0:"
    INDEX 01 00:28:04
  TRACK 31 AUDIO
    TITLE "3:cjc030_03204"
    INDEX 01 00:28:53
  TRACK 32 AUDIO
    TITLE "0:"
    INDEX 01 00:29:68
  TRACK 33 AUDIO
    TITLE "4:cjc030_03205"
    INDEX 01 00:30:01
  TRACK 34 AUDIO
    TITLE "0:"
    INDEX 01 00:31:04
  TRACK 35 AUDIO
    TITLE "5:cjc030_03206"
    INDEX 01 00:31:08
  TRACK 36 AUDIO
    TITLE "0:"
    INDEX 01 00:32:25
  TRACK 37 AUDIO
    TITLE "3:cjc030_03207"
    INDEX 01 00:33:05
  TRACK 38 AUDIO
    TITLE "0:"
    INDEX 01 00:34:22
  TRACK 39 AUDIO
    TITLE "4:cjc030_03208"
    INDEX 01 00:34:30
  TRACK 40 AUDIO
    TITLE "0:"
    INDEX 01 00:35:25
  TRACK 41 AUDIO
    TITLE "5:cjc030_03209"
    INDEX 01 00:35:33
  TRACK 42 AUDIO
    TITLE "0:"
    INDEX 01 00:36:50
  TRACK 43 AUDIO
    TITLE "3:cjc030_03210"
    INDEX 01 00:37:30
  TRACK 44 AUDIO
    TITLE "0:"
    INDEX 01 00:38:35
  TRACK 45 AUDIO
    TITLE "4:cjc030_03211"
    INDEX 01 00:38:45
  TRACK 46 AUDIO
    TITLE "0:"
    INDEX 01 00:41:63
  TRACK 47 AUDIO
    TITLE "5:cjc030_03212"
    INDEX 01 00:41:71
  TRACK 48 AUDIO
    TITLE "0:"
    INDEX 01 00:43:01
  TRACK 49 AUDIO
    TITLE "6:cjc030_03213"
    INDEX 01 00:43:13
  TRACK 50 AUDIO
    TITLE "0:"
    INDEX 01 00:47:52
  TRACK 51 AUDIO
    TITLE "3:cjc030_03214"
    INDEX 01 00:48:24
  TRACK 52 AUDIO
    TITLE "0:"
    INDEX 01 00:49:27
  TRACK 53 AUDIO
    TITLE "4:cjc030_03215"
    INDEX 01 00:49:37
  TRACK 54 AUDIO
    TITLE "0:"
    INDEX 01 00:50:37
  TRACK 55 AUDIO
    TITLE "5:cjc030_03216"
    INDEX 01 00:50:46
  TRACK 56 AUDIO
    TITLE "0:"
    INDEX 01 00:51:48
  TRACK 57 AUDIO
    TITLE "6:cjc030_03217"
    INDEX 01 00:51:62
  TRACK 58 AUDIO
    TITLE "0:"
    INDEX 01 00:53:47
  TRACK 59 AUDIO
    TITLE "3:cjc030_03218"
    INDEX 01 00:54:23
  TRACK 60 AUDIO
    TITLE "0:"
    INDEX 01 00:55:30
  TRACK 61 AUDIO
    TITLE "4:cjc030_03219"
    INDEX 01 00:55:38
  TRACK 62 AUDIO
    TITLE "0:"
    INDEX 01 00:58:22
  TRACK 63 AUDIO
    TITLE "5:cjc030_03220"
    INDEX 01 00:58:32
  TRACK 64 AUDIO
    TITLE "0:"
    INDEX 01 00:59:39
  TRACK 65 AUDIO
    TITLE "6:cjc030_03221"
    INDEX 01 00:59:53
  TRACK 66 AUDIO
    TITLE "0:"
    INDEX 01 01:03:71
  TRACK 67 AUDIO
    TITLE "3:cjc030_03222"
    INDEX 01 01:04:48
  TRACK 68 AUDIO
    TITLE "0:"
    INDEX 01 01:05:58
  TRACK 69 AUDIO
    TITLE "4:cjc030_03223"
    INDEX 01 01:05:68
  TRACK 70 AUDIO
    TITLE "0:"
    INDEX 01 01:06:57
  TRACK 71 AUDIO
    TITLE "5:cjc030_03224"
    INDEX 01 01:06:67
  TRACK 72 AUDIO
    TITLE "0:"
    INDEX 01 01:08:01
  TRACK 73 AUDIO
    TITLE "6:cjc030_03225"
    INDEX 01 01:08:13
  TRACK 74 AUDIO
    TITLE "0:"
    INDEX 01 01:09:73
